<svg version="1.1" id="basic-marker" xmlns="http://www.w3.org/2000/svg" xmlns:xlink="http://www.w3.org/1999/xlink" x="0px" y="0px"
	 viewBox="0 0 1083.6 1806.8" style="enable-background:new 0 0 1083.6 1806.8;" xml:space="preserve">
<style type="text/css">
	.st0{fill:#E81E25;stroke:#000000;stroke-width:37;stroke-miterlimit:10;}
	.st1{fill:none;}
	.st2{font-family:'MyriadPro-Regular';}
	.st3{font-size:600px;alignment-baseline:text-after-edge}
</style>
<g>
	<path class="st0" d="M543.2,1712c-38.8-190.3-107.1-348.7-189.9-495.4c-61.4-108.9-132.5-209.4-198.4-314.9
		c-22-35.2-40.9-72.5-62-109.1c-42.2-73.1-76.4-157.9-74.3-267.9c2.1-107.5,33.2-193.7,78-264.2c73.7-115.9,197.2-211,362.9-236
		C595,4,722,38.5,812.1,91.2c73.6,43,130.6,100.5,173.9,168.3c45.2,70.7,76.4,154.3,79,263.2c1.3,55.8-7.8,107.5-20.7,150.4
		c-13,43.4-34,79.7-52.6,118.5c-36.4,75.7-82,145-127.9,214.3C727.3,1212.5,599.3,1423.2,543.2,1712z"/>
</g>
<text transform="matrix(1 0 0 1 270 800)" class="st2 st3">50</text>
</svg>
